<?xml version="1.0" encoding="utf-8"?>
<!-- Generator: Adobe Illustrator 26.0.3, SVG Export Plug-In . SVG Version: 6.00 Build 0)  -->
<svg version="1.1" xmlns="http://www.w3.org/2000/svg" xmlns:xlink="http://www.w3.org/1999/xlink" x="0px" y="0px"
	 viewBox="0 0 250.62 250.62" style="enable-background:new 0 0 250.62 250.62;" xml:space="preserve">
<style type="text/css">
	.st0{fill:#0652DD;}
	.st1{fill:#FFFFFF;}
</style>
<g id="Calque_1">
</g>
<g id="Calque_2">
</g>
<g id="Calque_3">
</g>
<g id="Calque_4">
</g>
<g id="Calque_5">
</g>
<g id="Calque_6">
	<path d="M189.91,250.62H60.71C27.18,250.62,0,223.44,0,189.91V60.71C0,27.18,27.18,0,60.71,0h129.2
		c33.53,0,60.71,27.18,60.71,60.71v129.2C250.62,223.44,223.44,250.62,189.91,250.62z"/>
	<path class="st1" d="M139.38,165.33l27.42,27.25l-21.65,21.79l-45.44-45.14l-29.53-29.35h43.11c0.2,0,0.39,0,0.59-0.01
		c19.86-0.32,35.86-16.52,35.86-36.44c0-20.14-16.32-36.45-36.45-36.45h-5.86V36.52c0.97-0.09,1.94-0.15,2.93-0.19
		c0.97-0.05,1.95-0.07,2.93-0.07c37.1,0,67.17,30.07,67.17,67.17C180.45,131.26,163.51,155.14,139.38,165.33z"/>
</g>
<g id="Calque_11">
</g>
<g id="Calque_7">
</g>
<g id="Calque_8">
</g>
<g id="Calque_9">
</g>
<g id="Calque_10">
</g>
<g id="Calque_12">
</g>
</svg>
